<svg xmlns="http://www.w3.org/2000/svg" xmlns:xlink="http://www.w3.org/1999/xlink" version="1.0" viewBox="0 0 654.2 547.4"><defs><filter id="g" color-interpolation-filters="sRGB"><feGaussianBlur stdDeviation="2.9"/></filter><filter id="h" width="1.1" height="1.2" x="-.1" y="-.1" color-interpolation-filters="sRGB"><feGaussianBlur stdDeviation="1"/></filter><filter id="i" width="1.1" height="1.3" x="-.1" y="-.1" color-interpolation-filters="sRGB"><feGaussianBlur stdDeviation="1"/></filter><filter id="j" width="2.2" height="1.2" x="-.6" y="-.1" color-interpolation-filters="sRGB"><feGaussianBlur stdDeviation="1"/></filter><filter id="k" width="1.4" height="1.2" x="-.2" y="-.1" color-interpolation-filters="sRGB"><feGaussianBlur stdDeviation=".9"/></filter><filter id="l" width="1.2" height="1.2" x="-.1" y="-.1" color-interpolation-filters="sRGB"><feGaussianBlur stdDeviation=".9"/></filter><filter id="m" width="1.5" height="1.1" x="-.2" y="-.1" color-interpolation-filters="sRGB"><feGaussianBlur stdDeviation=".9"/></filter><radialGradient id="b" cx="282.7" cy="938.5" r="184.6" gradientTransform="matrix(-.88685 -.31673 -.12279 .3438 758 -51.7)" gradientUnits="userSpaceOnUse" xlink:href="#a"/><radialGradient id="c" cx="551.2" cy="852.6" r="11" gradientTransform="matrix(.33313 2.58763 1.23578 -.1591 -1006 -1110.8)" gradientUnits="userSpaceOnUse"><stop offset="0" stop-opacity="0"/><stop offset=".5" stop-opacity="0"/><stop offset="1"/></radialGradient><radialGradient id="d" cx="413" cy="807.7" r="151.1" gradientTransform="matrix(-.65373 .16784 .18 .7011 417.8 -512.9)" gradientUnits="userSpaceOnUse" xlink:href="#a"/><radialGradient id="e" cx="306.1" cy="1055.1" r="184.6" gradientTransform="matrix(-.78392 .20126 .0769 .29956 545.5 -169.4)" gradientUnits="userSpaceOnUse"><stop offset="0" stop-color="#a80"/><stop offset=".8" stop-color="#a28100"/><stop offset="1" stop-color="#540"/></radialGradient><radialGradient id="f" cx="-5153.7" cy="987.1" r="155.6" gradientTransform="matrix(1.121 0 0 .37961 6174.9 535.8)" gradientUnits="userSpaceOnUse"><stop offset="0" stop-opacity="0"/><stop offset=".1" stop-opacity="0"/><stop offset="1"/></radialGradient><linearGradient id="a"><stop offset="0" stop-color="#ff0"/><stop offset=".6" stop-color="#f7cc22"/><stop offset="1" stop-color="#d4aa00"/></linearGradient></defs><path fill="#531a12" stroke="#000" stroke-width="3" d="M275.3 450.3C267.7 451.3 49 418 49 418c-20-24-14.3-44.6-5-66.2-11.2-21.2-16.7-45.9 6.8-72.1-5.7-28.3-10.7-56.2 25.6-67.2-9.1-32.7 3.8-48.8 35-51.2-.5-36 10.9-59.4 53-50.1 12.4-56.7 35.8-34.7 55-32.2 18.5-47.2 45.5-34.7 73.7-25.6 40.1-32.5 53.5-10 74.8-.2 33.4-13.5 56.2-7.9 72 21.6 49.6-9 62.4 43.5 62.4 43.5 26.6-2.7 42 15 40.8 47.6 0 0 38.4 9.7 30.4 63.2 0 0 34.4 24.2 21.3 58.5 18 18.6 43.1 28.2 17.7 66 18 45.1-1 48.4-7.7 68.1l-212.3 22z"/><path fill="#ac4b3d" stroke="#000" stroke-width="3" d="M281.2 451.3c-7.1.9-212.8-29.7-212.8-29.7-19-22.8-15-44.2-6-64.7-10.7-20.2-13.8-44.8 8.6-69.6-5.5-26.9-10.2-53.4 24.2-63.8-8.6-31 3.6-46.3 33.3-48.5-.6-34.2 10.3-56.4 50.3-47.7 11.7-53.7 29.9-35.9 48.1-33.5 17.6-44.7 43-30 69.9-21.4 38-30.8 47.7-11.6 67.9-2.3 31.7-12.8 52.3-7.6 67.2 20.3 47.1-8.5 52.3 45.3 52.3 45.3 25.2-2.6 40.9 14.5 39.7 45.4 0 0 41.6 9 34 59.8 0 0 28.8 23.1 16.3 55.7 17 17.6 44 27 19.9 63 29.6 40.6.9 44.5-6.4 63.4L387 444z"/><path fill="#ffa23f" stroke="#000" stroke-width="3" d="M280.4 449.2c-5 .8-155.3-20.6-155.3-20.6-13.4-19.7-8.5-32.2-2.2-50-7.5-17.4-11.7-43.6 4-65-3.8-23.2-5.1-47.1 19.2-56.1-6.1-26.8-1.5-47 19.4-49-.3-29.4 13.3-52.6 41.6-45 8.2-46.5 24-35 37-33 12.3-38.6 35.3-28 54.3-20.5 26.8-26.6 41.6-2 55.9 6 22.3-11 36 .4 46.4 24.5 33.3-7.3 34 47.2 34 47.2 17.8-2.3 28.8 21.5 28 48.2 0 0 28.4-.2 23 43.6 0 0 20.3 24 11.5 52.1 12 15.2 21 19.9 3.9 51 20.9 35 2.8 32.9-2.4 49.2l-142.6 14z"/><path fill="none" stroke="#000" stroke-width="3" d="M40.5 349.4l263 90M49.5 278.4l238 109M74.5 212.3l230 153M109.5 161.3l168 147M162.5 109.3l124 159M220.5 79.4l57 122M291.5 50.4l18 128M366.5 51.4l-26 124M439.5 71.4l-63 116M503.5 118.3l-107 109M545.5 163.3l-145 128M573.5 230.3l-158 88M596.5 287.4l-191 86M613.5 354.4l-231 62"/><path fill="#ff7400" fill-rule="evenodd" stroke="#000" stroke-linecap="round" stroke-width="3.5" d="M264.4 418.8c-7.8.8-6.7 11-6.4 17 0 15.8 0 31.7.3 47.5-12.4-1.7-24.7-5.2-37-6.2-6.9.8-8.3 12.4-.8 13.7 4.8 1.7 21.7 2 18.4 4.6-10.6 5-22.3 8.2-32.3 13.8-5.5 5.6 2 15.5 8.6 11.2 13-5.2 25.7-10.6 38.6-16-1.2 7.4-7.4 14.3-6.1 21.8 2.8 7.6 15 6 15.2-2.8 3.2-8.8 6.1-17.7 9.3-26.5 11.5-5.4 24-9.1 35.3-15 5.6-4.5 1-14.6-6-12.2-9.6 3.6-19 7.8-28.4 11.7-.3-18.6-.3-37.2-.2-55.7a8 8 0 00-8.5-6.9zM379.7 417.9c-8.8 1.2-7.4 12.3-6.7 19-.6 14.5 0 29-.4 43.5C362 477 352 470.1 341 468.7c-8.4 1-6 14.4 1.5 14.4 10.2 5 22.4 7.9 31.3 14 4.4 10.4 6.2 22.4 12.2 31.7 5.5 4.8 15.6-2.4 11.3-9.3-1.6-6.6-10.4-21 1.6-13 11.8 4.3 23.2 10.8 35.4 13.9 8 0 8.7-13.5.7-14.1l-30.7-12.8c7.8-2.6 17.7-.7 24.5-6 4.7-5.5-2.9-14.1-8.9-10.9l-32.6 5.8c-.1-20 1-40.4-.4-60.4a7.4 7.4 0 00-7.3-4.1z"/><path fill="#ac4b3d" stroke="#000" stroke-linecap="round" stroke-linejoin="round" stroke-width="3.5" d="M463.4 328.2c0 81.6-63.2 147.7-141 147.7-78 0-141.1-66.1-141.1-147.7 0-81.5 63.1-147.7 141-147.7 78 0 141 66.1 141 147.7z"/><path fill-opacity=".3" d="M454.8 277.6l.2 6.8c0 81.5-63.2 147.7-141 147.7-60.9 0-112.8-40.5-132.6-97 3.4 78.3 65.3 140.8 141 140.8 77.8 0 141-66.2 141-147.7 0-17.8-3-34.8-8.6-50.6z"/><path fill="#ac4b3d" stroke="#000" stroke-linecap="round" stroke-linejoin="round" stroke-width="3.5" d="M415.5 236.5c0 55.4-42.9 100.2-95.8 100.2S224 292 224 236.6c0-55.4 42.8-100.3 95.7-100.3 53 0 95.8 45 95.8 100.3z"/><path fill="#fff" stroke="#000" stroke-linecap="round" stroke-linejoin="round" stroke-width="1.8" d="M142.8 56.2a15.4 15.4 0 11-30.7 0 15.4 15.4 0 0130.7 0z" transform="matrix(1.7859 0 0 1.8696 129.5 121.5)"/><path d="M352.6 226.6c0 5.3-4 9.5-9 9.5-5.1 0-9.2-4.2-9.2-9.5s4-9.6 9.1-9.6c5 0 9.1 4.3 9.1 9.6z"/><path fill="#fff" stroke="#000" stroke-linecap="round" stroke-linejoin="round" stroke-width="1.8" d="M107.1 56.2a15.4 15.4 0 11-30.7 0 15.4 15.4 0 0130.7 0z" transform="matrix(1.7859 0 0 1.8696 117.3 122.5)"/><path d="M302.7 227.6c0 5.3-4.1 9.5-9.2 9.5-5 0-9.1-4.2-9.1-9.5s4-9.6 9.1-9.6c5 0 9.2 4.3 9.2 9.6z"/><path fill-opacity=".3" d="M413.4 202.5l-2.3 3.6c.3 4.1.5 8.3.5 12.6 0 61-58 111.4-98.1 104.8-33.4-5.5-73.3-26.5-91.2-70.7 9.1 54.2 68.5 94.4 97 94 63-.6 98-47.3 98-108.2 0-12.6-1.3-24.8-4-36.1z"/><path fill="red" fill-rule="evenodd" stroke="#000" stroke-linecap="round" stroke-linejoin="round" stroke-width="2.4" d="M292.7 285.4l23.8 58.5 26-52.5c-9-24-36.4-27-49.8-6z"/><path fill="#ffce00" fill-rule="evenodd" stroke="#000" stroke-linecap="round" stroke-linejoin="round" stroke-width="2.7" d="M286.7 268.2l16.4 68 42-49a35 35 0 00-58.4-19z"/><path fill="red" fill-rule="evenodd" stroke="#000" stroke-linecap="round" stroke-linejoin="round" stroke-width="2.2" d="M360.3 327c-5.4-39.5-23.6-59.7-26-59.3a74 74 0 01.7 59.3c-22.2 48.8 27.2 56.6 25.3 0z"/><path d="M274.5 44.2c19.5-5 39.3-3 56.8 4.7a88.3 88.3 0 0152 42l-.2-.1a149 149 0 0115.4 29.8c3.1 1 6.8 2.5 9.5 3.9a316 316 0 0124.1 14.4 133 133 0 0112.7 9.3c3.5 3 6.2 5.6 7 8.7.8 3.3 0 7-1.6 10.7-1.6 3.8-4 7.7-6.6 11.5-5.5 7.7-12.2 15.2-16 20.1-5.3 6.6-9 10.9-15 14.3-5.9 3.3-13.9 5.8-27.8 9.4-11.8 3-32 2.8-51.7 1.6a532.1 532.1 0 01-47.6-5A242 242 0 01236 207c-12.2-4.7-21-12.1-23.5-22.2-2.1-8.2.2-16.9 5.7-25.2a85 85 0 0156.4-115.3z"/><path fill="url(#b)" d="M276.8 49.2a80.5 80.5 0 0153.2 4.5 83.3 83.3 0 0149 39.8c6.9 10.5 11.6 20.5 14.8 29.3 3.1 1 7.1 2.6 9.8 4 8.5 4.5 39 22.3 41 30 2.7 10.5-15.2 29.5-22.8 39.2-9.9 12.7-13.2 15.2-39.9 22-21.3 5.6-77.7-.5-94.4-3.4-15-2.3-34.9-7-47.1-12.1-11.4-4.4-19.2-11.3-21.5-20.2-1.9-7.5.3-15.6 5.8-23.6a79.7 79.7 0 0152.2-109.5z"/><path fill="url(#c)" d="M224.7 158.7a40 40 0 001.9 5.6c-2.4 5.6-3 11.2-1.7 16.5 1.6 6 5.6 11.2 11.5 15.2-9-4-15.3-9.5-18-16.3a30.5 30.5 0 016.3-21z" opacity=".8"/><path fill="url(#d)" d="M276.8 49.2a80.5 80.5 0 0153.2 4.5 83.3 83.3 0 0149 39.8c6.9 10.5 11.6 20.5 14.8 29.3 11 42.6-42.9 68.3-68.8 75.5-38.2 10-91.5-5-100.3-39.6a79.7 79.7 0 0152.2-109.5z"/><path fill="#ffff04" d="M220.4 145.3c.9 3 2 6.1 3.2 9l-.4.6a85.3 85.3 0 01-2.8-9.6z" opacity=".6"/><path fill="url(#e)" d="M218.4 179.7c3.4 8.4 12.2 14.8 24.6 18.8 13 4 29.1 8.7 43.3 11.2 16.7 3 73.2 9.8 94.7 4.8 26.8-6.3 30.2-8.7 40.2-20.9 7.6-9 25.1-26.8 23.3-37.1v.3c2.8 10.5-15 29.5-22.7 39.2-9.9 12.7-13.2 15.2-39.9 22-21.3 5.6-77.7-.6-94.4-3.3a215 215 0 01-50.4-13.6c-9.6-4.4-16.1-10.8-18.2-18.8l-.5-2.6z"/><path fill="url(#f)" d="M540 822.3c-13.6 52.3-75.4 92-148.4 92-71.5 0-130.3-38-143.2-88.7a43.3 43.3 0 00-2.6 13.3c-1.5 43 63.7 77.9 145.8 77.9 82 0 149.8-34.9 151.3-77.9.2-5.7-.8-11.3-2.8-16.6z" filter="url(#g)" opacity=".2" transform="matrix(-.57787 .14836 .15145 .5899 412 -402)"/><path d="M276.8 49.2a80.5 80.5 0 0153.2 4.5c3.2 1 6.3 2.2 9.3 3.5a90.8 90.8 0 0144.4 59.2l-.2-.6C366.3 69.2 316.3 40.7 271.8 52c-6.2 1.6-11.9 3.8-17.2 6.7a77.8 77.8 0 0122.2-9.6z"/><path d="M257 57.4c33.7-1.5 70 26.8 87.8 72a147 147 0 019.3 37c-2-9.7-4.9-19.4-8.8-29-20.4-49.8-61.4-79.8-97.2-74 2.8-2.2 5.7-4.2 8.8-6z"/><path fill="#fd5" d="M218.4 179.7c3.5 8.8 13 15.4 26.3 19.4 15.7 4.5 28.9 8.5 41.6 10.6 16.7 3 73.2 9.8 94.7 4.8 26.8-6.3 30.2-8.7 40.2-20.9 7.5-9 25-26.7 23.3-37 2 10.3-15.6 28.4-23.1 37.6-10 12.3-13.4 14.8-40.1 21.4-21.4 5.2-77.9-1-94.5-3.9a493.3 493.3 0 01-43-10.6c-13-4-22.1-10.9-25.1-20v-.1l-.3-1.3z" opacity=".6"/><path fill="#d4aa00" d="M341.3 904l44 5.4v16.2l-44-5.4z" filter="url(#h)" transform="matrix(-.5899 .15145 .15145 .5899 419.5 -404)"/><path fill="#ffd42a" d="M341.3 904l44 5.4 3.1-13.2-44-5.5z" filter="url(#i)" transform="matrix(-.5899 .15145 .15145 .5899 419.5 -404)"/><path fill="#ffd42a" d="M389.4 918.2l-4 7.5v-16.3l3-13.2z" filter="url(#j)" transform="matrix(-.5899 .15145 .15145 .5899 419.5 -404)"/><path fill="#d4aa00" d="M341.3 904l44 5.4v16.2l-44-5.4z" filter="url(#h)" transform="matrix(.5476 .0337 .07286 .60466 3 -369.1)"/><path fill="#ffd42a" d="M341.3 904l44 5.4 3.1-13.2-44-5.5z" filter="url(#i)" transform="matrix(.5476 .0337 .07286 .60466 3 -369.1)"/><path fill="#ffd42a" d="M389.4 918.2l-4 7.5v-16.3l3-13.2z" filter="url(#j)" transform="matrix(.5476 .0337 .07286 .60466 3 -369.1)"/><path fill="#f5ca1f" d="M262.5 862.9l10-7.2-.4 15.8-9.6 8z" filter="url(#k)" transform="matrix(-.8999 .23104 .165 .6427 489.4 -470.4)"/><path fill="#e4ba10" d="M262.5 862.9l10-7.2-9.6-19-9 5.6z" filter="url(#l)" transform="matrix(-.8999 .23104 .165 .6427 489.4 -470.4)"/><path fill="#dab20d" d="M253.8 842.3l8.7 20.6v16.5l-9.3-21.7z" filter="url(#m)" transform="matrix(-.8999 .23104 .165 .6427 489.4 -470.4)"/></svg>